<svg xmlns="http://www.w3.org/2000/svg" viewBox="0 0 400 240" role="img" aria-label="Konut sigortası - modern ev">
  <defs>
    <linearGradient id="h-bg" x1="0" y1="0" x2="0" y2="1">
      <stop offset="0" stop-color="#211a20"/>
      <stop offset="1" stop-color="#12100f"/>
    </linearGradient>
    <radialGradient id="h-glow" cx="0.3" cy="0.2" r="0.7">
      <stop offset="0" stop-color="#8c3140" stop-opacity="0.5"/>
      <stop offset="1" stop-color="#8c3140" stop-opacity="0"/>
    </radialGradient>
    <linearGradient id="h-wall" x1="0" y1="0" x2="0" y2="1">
      <stop offset="0" stop-color="#f0e6dd"/>
      <stop offset="1" stop-color="#d8cabf"/>
    </linearGradient>
    <linearGradient id="h-roof" x1="0" y1="0" x2="0" y2="1">
      <stop offset="0" stop-color="#c25667"/>
      <stop offset="1" stop-color="#8c3140"/>
    </linearGradient>
  </defs>
  <rect width="400" height="240" fill="url(#h-bg)"/>
  <rect width="400" height="240" fill="url(#h-glow)"/>
  <ellipse cx="200" cy="204" rx="160" ry="14" fill="#000000" opacity="0.35"/>
  <line x1="40" y1="200" x2="360" y2="200" stroke="#f0e6dd" stroke-opacity="0.16" stroke-width="2"/>
  <!-- back tall block -->
  <rect x="228" y="96" width="70" height="104" fill="#2c262b"/>
  <rect x="240" y="110" width="16" height="16" fill="#c25667" opacity="0.85"/>
  <rect x="266" y="110" width="16" height="16" fill="#c25667" opacity="0.55"/>
  <rect x="240" y="140" width="16" height="16" fill="#c25667" opacity="0.7"/>
  <rect x="266" y="140" width="16" height="16" fill="#c25667" opacity="0.85"/>
  <!-- main house -->
  <rect x="108" y="126" width="128" height="74" fill="url(#h-wall)"/>
  <path d="M100 128 L172 78 L244 128 Z" fill="url(#h-roof)"/>
  <path d="M100 128 L172 78 L244 128 Z" fill="none" stroke="#c9727f" stroke-width="2" opacity="0.6"/>
  <!-- door -->
  <rect x="156" y="152" width="32" height="48" rx="2" fill="#8c3140"/>
  <circle cx="181" cy="177" r="2.5" fill="#f0e6dd"/>
  <!-- windows -->
  <rect x="120" y="146" width="26" height="26" rx="2" fill="#2c262b"/>
  <rect x="198" y="146" width="26" height="26" rx="2" fill="#2c262b"/>
  <line x1="133" y1="146" x2="133" y2="172" stroke="#f0e6dd" stroke-opacity="0.5" stroke-width="2"/>
  <line x1="120" y1="159" x2="146" y2="159" stroke="#f0e6dd" stroke-opacity="0.5" stroke-width="2"/>
  <line x1="211" y1="146" x2="211" y2="172" stroke="#f0e6dd" stroke-opacity="0.5" stroke-width="2"/>
  <line x1="198" y1="159" x2="224" y2="159" stroke="#f0e6dd" stroke-opacity="0.5" stroke-width="2"/>
  <!-- protection shield -->
  <path d="M300 128 L326 136 L326 158 Q326 176 300 186 Q274 176 274 158 L274 136 Z" fill="#8c3140" opacity="0.92"/>
  <path d="M300 128 L326 136 L326 158 Q326 176 300 186 Q274 176 274 158 L274 136 Z" fill="none" stroke="#c9727f" stroke-width="2"/>
  <path d="M289 156 L298 165 L313 145" fill="none" stroke="#f0e6dd" stroke-width="4.5" stroke-linecap="round" stroke-linejoin="round"/>
</svg>
